<svg xmlns="http://www.w3.org/2000/svg" width="1200" height="630" viewBox="0 0 1200 630">
  <defs>
    <pattern id="dots" width="22" height="22" patternUnits="userSpaceOnUse">
      <circle cx="1.5" cy="1.5" r="1.5" fill="rgba(120,105,75,0.10)"/>
    </pattern>
  </defs>
  <rect width="1200" height="630" fill="#f2ede1"/>
  <rect width="1200" height="630" fill="url(#dots)"/>

  <g transform="rotate(-16 752 128)">
      <rect x="706" y="96" width="92" height="64" rx="4" fill="#fdf6e6" stroke="#a8802a" stroke-width="3"/>
      <text x="752" y="141" text-anchor="middle" font-family="Headline R" font-size="34" fill="#a8802a">3조</text>
    </g><g transform="rotate(6 918 84)">
      <rect x="872" y="52" width="92" height="64" rx="4" fill="#fdf1ea" stroke="#b4472f" stroke-width="3"/>
      <text x="918" y="97" text-anchor="middle" font-family="Headline R" font-size="34" fill="#b4472f">1조</text>
    </g><g transform="rotate(17 1082 136)">
      <rect x="1036" y="104" width="92" height="64" rx="4" fill="#eef7f5" stroke="#2f6f66" stroke-width="3"/>
      <text x="1082" y="149" text-anchor="middle" font-family="Headline R" font-size="34" fill="#2f6f66">2조</text>
    </g>
  
<g transform="translate(672 132) scale(2.45)">
  <ellipse cx="100" cy="152" rx="52" ry="8" fill="rgba(90,76,48,0.16)"/>
  <ellipse cx="100" cy="58" rx="58" ry="13" fill="#7a6440"/>
  <ellipse cx="100" cy="58" rx="58" ry="13" fill="none" stroke="#3d3423" stroke-width="2.5"/>
  <g transform="rotate(-15 62 50)">
        <rect x="54" y="30" width="16" height="34" rx="2" fill="#fffdf6" stroke="#b9ab8d" stroke-width="1.6"/>
        <line x1="57" y1="41" x2="67" y2="41" stroke="#d8cdb4" stroke-width="1.4"/>
      </g><g transform="rotate(-5 80 42)">
        <rect x="72" y="22" width="16" height="34" rx="2" fill="#fffdf6" stroke="#b9ab8d" stroke-width="1.6"/>
        <line x1="75" y1="33" x2="85" y2="33" stroke="#d8cdb4" stroke-width="1.4"/>
      </g><g transform="rotate(4 99 46)">
        <rect x="91" y="26" width="16" height="34" rx="2" fill="#fffdf6" stroke="#b9ab8d" stroke-width="1.6"/>
        <line x1="94" y1="37" x2="104" y2="37" stroke="#d8cdb4" stroke-width="1.4"/>
      </g><g transform="rotate(11 117 40)">
        <rect x="109" y="20" width="16" height="34" rx="2" fill="#fffdf6" stroke="#b9ab8d" stroke-width="1.6"/>
        <line x1="112" y1="31" x2="122" y2="31" stroke="#d8cdb4" stroke-width="1.4"/>
      </g><g transform="rotate(19 134 52)">
        <rect x="126" y="32" width="16" height="34" rx="2" fill="#fffdf6" stroke="#b9ab8d" stroke-width="1.6"/>
        <line x1="129" y1="43" x2="139" y2="43" stroke="#d8cdb4" stroke-width="1.4"/>
      </g>
  <path d="M42,58 L158,58 L147,142 Q100,152 53,142 Z" fill="#d8c49b" stroke="#3d3423" stroke-width="2.5" stroke-linejoin="round"/>
  <path d="M42,58 C42,74 158,74 158,58 Z" fill="#e2d0aa"/>
  <path d="M42,58 C42,74 158,74 158,58" fill="none" stroke="#3d3423" stroke-width="2.5" stroke-linecap="round"/>
  <path d="M50,96 Q100,103 150,96" fill="none" stroke="#c0aa7c" stroke-width="2"/>
  <path d="M52,116 Q100,123 148,116" fill="none" stroke="#c0aa7c" stroke-width="2"/>
  <g transform="rotate(-3 100 112)">
    <rect x="66" y="96" width="68" height="30" rx="2" fill="#fffdf6" stroke="#3d3423" stroke-width="2"/>
    <text x="100" y="118" text-anchor="middle" font-family="Pyunji R" font-size="22" fill="#262218">제비통</text>
  </g>
</g>

  <!-- 왼쪽 텍스트 -->
  <g transform="rotate(-1.2 90 150)">
    <rect x="72" y="118" width="250" height="46" rx="3" fill="#e6dfcc" stroke="#ddd4bf" stroke-width="2"/>
    <text x="197" y="149" text-anchor="middle" font-family="Malgun Gothic" font-size="24" fill="#5f584a">종이 제비 뽑기 방식</text>
  </g>

  <text x="72" y="300" font-family="Headline R" font-size="122" fill="#262218">조뽑기 통</text>

  <text x="74" y="368" font-family="Malgun Gothic" font-size="30" fill="#5f584a">이름을 넣고 한 명씩 누르면</text>
  <text x="74" y="412" font-family="Malgun Gothic" font-size="30" fill="#5f584a">통에서 제비가 나와 조가 정해진다</text>

  <g>
    <rect x="72" y="462" width="112" height="44" rx="3" fill="#b4472f"/>
    <text x="128" y="492" text-anchor="middle" font-family="Malgun Gothic" font-size="22" font-weight="700" fill="#fffdf6">균등 분배</text>
    <rect x="196" y="462" width="128" height="44" rx="3" fill="#fffdf6" stroke="#262218" stroke-width="2"/>
    <text x="260" y="492" text-anchor="middle" font-family="Malgun Gothic" font-size="22" fill="#262218">서버 없음</text>
    <rect x="336" y="462" width="128" height="44" rx="3" fill="#fffdf6" stroke="#262218" stroke-width="2"/>
    <text x="400" y="492" text-anchor="middle" font-family="Malgun Gothic" font-size="22" fill="#262218">뽑는 재미</text>
  </g>

  <text x="74" y="562" font-family="Malgun Gothic" font-size="24" fill="#9c9384">jo-ppopgi.vercel.app</text>
</svg>